<svg xmlns="http://www.w3.org/2000/svg" viewBox="0 0 129.65 62.76"><defs><style>.cls-1{isolation:isolate;}.cls-2,.cls-4,.cls-5{fill:#5d686e;}.cls-2{opacity:0.8;}.cls-3{fill:#e30613;}.cls-4{opacity:0.6;mix-blend-mode:multiply;}</style></defs><title>dhbw-logo</title><g class="cls-1"><g id="Ebene_1" data-name="Ebene 1"><path class="cls-2" d="M58,53.49H48.1v8.86a2.77,2.77,0,0,1-.8,1.6L38.25,73c-.44.44-.8.44-.8,0v1a.8.8,0,0,0,.8.8H58a.8.8,0,0,0,.8-.8V54.29A.8.8,0,0,0,58,53.49Z" transform="translate(-14.29 -42.32)"/><path class="cls-3" d="M47.3,42.65,38.25,51.7a2.75,2.75,0,0,0-.8,1.6V73c0,.44.36.44.8,0L47.3,64a2.77,2.77,0,0,0,.8-1.6V42.65C48.1,42.21,47.74,42.21,47.3,42.65Z" transform="translate(-14.29 -42.32)"/><path class="cls-4" d="M38.25,73,47.3,64a2.77,2.77,0,0,0,.8-1.6V53.49H38.25a.8.8,0,0,0-.8.8V73C37.45,73.45,37.81,73.45,38.25,73Z" transform="translate(-14.29 -42.32)"/><path class="cls-2" d="M34.79,74.79H24.94V85.52c0,.44.36.44.8,0l9.05-9.05a2.75,2.75,0,0,0,.8-1.6V74A.8.8,0,0,1,34.79,74.79Z" transform="translate(-14.29 -42.32)"/><rect class="cls-3" y="11.17" width="21.3" height="21.3" rx="0.8" ry="0.8"/><path class="cls-4" d="M34.79,55.17l-9.05,9.05a2.75,2.75,0,0,0-.8,1.6v9h9.85a.8.8,0,0,0,.8-.8V55.17C35.59,54.73,35.23,54.73,34.79,55.17Z" transform="translate(-14.29 -42.32)"/><path class="cls-5" d="M72.63,92.76a1.45,1.45,0,0,1-.15.66,1.41,1.41,0,0,1-.4.49,1.84,1.84,0,0,1-.6.3,2.42,2.42,0,0,1-.72.11H69.39v-5.4h1.47a2.32,2.32,0,0,1,.61.08,1.56,1.56,0,0,1,.52.25,1.23,1.23,0,0,1,.36.42,1.29,1.29,0,0,1,.13.6.94.94,0,0,1-.1.42,1.48,1.48,0,0,1-.24.36,1.56,1.56,0,0,1-.32.27,1.45,1.45,0,0,1-.34.16,1.45,1.45,0,0,1,.43.15,1.36,1.36,0,0,1,.36.28,1.32,1.32,0,0,1,.25.39A1.22,1.22,0,0,1,72.63,92.76Zm-.75-2.47a.82.82,0,0,0-.28-.66,1.09,1.09,0,0,0-.74-.24H70v1.87h.86a1.05,1.05,0,0,0,.39-.07,1.09,1.09,0,0,0,.33-.2,1,1,0,0,0,.23-.31A.86.86,0,0,0,71.88,90.29ZM72,92.74a.92.92,0,0,0-.32-.74,1.24,1.24,0,0,0-.83-.27H70v2.11h.88a1.24,1.24,0,0,0,.45-.08,1.15,1.15,0,0,0,.37-.23,1,1,0,0,0,.25-.35A1.1,1.1,0,0,0,72,92.74Z" transform="translate(-14.29 -42.32)"/><path class="cls-5" d="M75.72,94.32v-.58a1,1,0,0,1-.12.16,1.33,1.33,0,0,1-.25.23,1.74,1.74,0,0,1-.35.2,1.07,1.07,0,0,1-.43.08,1.29,1.29,0,0,1-.88-.3,1.06,1.06,0,0,1-.34-.84.83.83,0,0,1,.15-.48,1.5,1.5,0,0,1,.38-.38,2.71,2.71,0,0,1,.5-.28A2.89,2.89,0,0,1,74.9,92l.79-.18v-.27a1,1,0,0,0-.21-.67.78.78,0,0,0-.65-.27,1,1,0,0,0-.29,0l-.31.11-.26.12-.15.09-.17-.44.15-.08.29-.12.38-.11a1.77,1.77,0,0,1,.42,0,1.39,1.39,0,0,1,1,.34,1.32,1.32,0,0,1,.37,1v2.81Zm0-2.11-.68.15a2.59,2.59,0,0,0-.36.12,1.77,1.77,0,0,0-.35.2,1.14,1.14,0,0,0-.26.26.53.53,0,0,0-.11.32.7.7,0,0,0,.21.54.71.71,0,0,0,.51.19A.88.88,0,0,0,75,93.9a1.32,1.32,0,0,0,.32-.19,1.39,1.39,0,0,0,.24-.25,1,1,0,0,0,.14-.25Z" transform="translate(-14.29 -42.32)"/><path class="cls-5" d="M79.91,94.32v-.58l-.11.16a1.34,1.34,0,0,1-.23.23,1.68,1.68,0,0,1-.32.2.8.8,0,0,1-.35.08,1.23,1.23,0,0,1-.71-.2,1.58,1.58,0,0,1-.48-.52,2.44,2.44,0,0,1-.27-.72,3.85,3.85,0,0,1-.08-.8,2.48,2.48,0,0,1,.11-.72,2.31,2.31,0,0,1,.31-.65,1.65,1.65,0,0,1,.49-.47,1.19,1.19,0,0,1,.64-.18.8.8,0,0,1,.35.08,1.44,1.44,0,0,1,.3.19,1.48,1.48,0,0,1,.21.22,1.11,1.11,0,0,1,.12.17V88.57h.56v5.74Zm0-2.88a1,1,0,0,0-.09-.2,1.48,1.48,0,0,0-.19-.27,1.38,1.38,0,0,0-.28-.24.65.65,0,0,0-.36-.1.74.74,0,0,0-.42.12,1,1,0,0,0-.32.34,1.77,1.77,0,0,0-.21.5,2.44,2.44,0,0,0-.07.61,3.65,3.65,0,0,0,.05.6,2.21,2.21,0,0,0,.17.57,1.28,1.28,0,0,0,.32.43A.7.7,0,0,0,79,94a.67.67,0,0,0,.34-.1,1.24,1.24,0,0,0,.29-.23,1.59,1.59,0,0,0,.2-.25.77.77,0,0,0,.09-.19Z" transform="translate(-14.29 -42.32)"/><path class="cls-5" d="M82,92.38a2.41,2.41,0,0,0,.06.52,1.94,1.94,0,0,0,.19.51,1.24,1.24,0,0,0,.33.4.76.76,0,0,0,.49.16,1.61,1.61,0,0,0,.34,0l.31-.09.25-.1.17-.09.17.47-.17.07-.28.1-.37.09a2.57,2.57,0,0,1-.43,0,1.39,1.39,0,0,1-.79-.21,1.54,1.54,0,0,1-.49-.54,2.36,2.36,0,0,1-.25-.72,4.2,4.2,0,0,1-.07-.77,2.5,2.5,0,0,1,.1-.66,2.43,2.43,0,0,1,.29-.66,1.78,1.78,0,0,1,.47-.51,1.08,1.08,0,0,1,.65-.2,1.2,1.2,0,0,1,.7.19,1.51,1.51,0,0,1,.46.49,2.24,2.24,0,0,1,.25.66,3.22,3.22,0,0,1,.08.68v.2Zm1.83-.83a1.83,1.83,0,0,0-.16-.45,1.17,1.17,0,0,0-.29-.36.68.68,0,0,0-.84,0,1.12,1.12,0,0,0-.29.35,2,2,0,0,0-.17.45A1.8,1.8,0,0,0,82,92H83.9A2.06,2.06,0,0,0,83.84,91.55Z" transform="translate(-14.29 -42.32)"/><path class="cls-5" d="M88,94.32V91.59a1.16,1.16,0,0,0-.05-.34,1.14,1.14,0,0,0-.15-.32.79.79,0,0,0-.25-.23.67.67,0,0,0-.34-.09.8.8,0,0,0-.36.09,1.32,1.32,0,0,0-.31.21,1.43,1.43,0,0,0-.22.25.53.53,0,0,0-.09.21v2.93h-.56V90.25h.53v.57a.77.77,0,0,1,.11-.15,1.45,1.45,0,0,1,.24-.22,1.8,1.8,0,0,1,.33-.2.89.89,0,0,1,.4-.09,1.29,1.29,0,0,1,.57.12,1.15,1.15,0,0,1,.4.31,1.37,1.37,0,0,1,.24.44,1.59,1.59,0,0,1,.08.5v2.79Z" transform="translate(-14.29 -42.32)"/><path class="cls-5" d="M89.74,92.1v-.5h1.7v.5Z" transform="translate(-14.29 -42.32)"/><path class="cls-5" d="M97.08,94.32h-.66l-1.17-4.67-1.15,4.67h-.66l-1.25-5.4h.63l1,4.67L95,88.91h.66l1.16,4.67,1-4.67h.59Z" transform="translate(-14.29 -42.32)"/><path class="cls-5" d="M101.54,94.32v-.58l-.11.15a1.3,1.3,0,0,1-.22.23,1.6,1.6,0,0,1-.32.2.91.91,0,0,1-.4.09,1.29,1.29,0,0,1-.57-.12,1.17,1.17,0,0,1-.39-.31,1.27,1.27,0,0,1-.23-.44,1.85,1.85,0,0,1-.07-.52V90.25h.56V93a1.47,1.47,0,0,0,0,.36,1,1,0,0,0,.13.31.72.72,0,0,0,.24.22.75.75,0,0,0,.72,0,1.48,1.48,0,0,0,.3-.23,1.32,1.32,0,0,0,.21-.26.65.65,0,0,0,.09-.18V90.25h.56v4.07Zm-1.21-5.17a.36.36,0,0,1-.11.26.37.37,0,0,1-.27.11.36.36,0,0,1-.27-.11.38.38,0,0,1,0-.53.36.36,0,0,1,.27-.11.37.37,0,0,1,.27.11A.36.36,0,0,1,100.33,89.15Zm1.39,0a.36.36,0,0,1-.11.26.37.37,0,0,1-.27.11.35.35,0,0,1-.27-.11.38.38,0,0,1,0-.53.35.35,0,0,1,.27-.11.37.37,0,0,1,.27.11A.36.36,0,0,1,101.72,89.15Z" transform="translate(-14.29 -42.32)"/><path class="cls-5" d="M105.1,90.78l-.15-.07a.42.42,0,0,0-.17,0,.57.57,0,0,0-.31.09,1.35,1.35,0,0,0-.26.21,1.32,1.32,0,0,0-.18.24.85.85,0,0,0-.08.17v2.92h-.56V90.25h.53v.57l.08-.14a1.23,1.23,0,0,1,.19-.23,1.26,1.26,0,0,1,.29-.21.77.77,0,0,1,.38-.09.75.75,0,0,1,.23,0,.57.57,0,0,1,.17.08Z" transform="translate(-14.29 -42.32)"/><path class="cls-5" d="M107.94,94.33l-.16,0-.19,0-.18,0a1,1,0,0,1-.41-.07.7.7,0,0,1-.27-.2.78.78,0,0,1-.14-.29,1.22,1.22,0,0,1,0-.33V90.71h-.68v-.46h.68v-1.1h.56v1.1h.8v.46h-.8v2.75a.73.73,0,0,0,.08.33.27.27,0,0,0,.26.16.81.81,0,0,0,.25,0l.19-.08.17.46Z" transform="translate(-14.29 -42.32)"/><path class="cls-5" d="M110.7,94.33l-.16,0-.19,0-.18,0a1,1,0,0,1-.41-.07.7.7,0,0,1-.27-.2.76.76,0,0,1-.15-.29,1.25,1.25,0,0,1,0-.33V90.71h-.68v-.46h.68v-1.1h.56v1.1h.8v.46h-.8v2.75a.74.74,0,0,0,.08.33.27.27,0,0,0,.26.16.81.81,0,0,0,.25,0l.19-.08.17.46Z" transform="translate(-14.29 -42.32)"/><path class="cls-5" d="M112.12,92.38a2.44,2.44,0,0,0,.06.52,1.9,1.9,0,0,0,.19.51,1.24,1.24,0,0,0,.33.4.77.77,0,0,0,.49.16,1.62,1.62,0,0,0,.34,0l.31-.09.25-.1.17-.09.17.47-.17.07-.28.1-.37.09a2.56,2.56,0,0,1-.43,0,1.39,1.39,0,0,1-.79-.21,1.54,1.54,0,0,1-.49-.54,2.35,2.35,0,0,1-.25-.72,4.21,4.21,0,0,1-.07-.77,2.52,2.52,0,0,1,.1-.66,2.43,2.43,0,0,1,.29-.66,1.77,1.77,0,0,1,.47-.51,1.08,1.08,0,0,1,.65-.2,1.2,1.2,0,0,1,.7.19,1.51,1.51,0,0,1,.46.49,2.23,2.23,0,0,1,.25.66,3.26,3.26,0,0,1,.08.68v.2Zm1.84-.83a1.85,1.85,0,0,0-.16-.45,1.19,1.19,0,0,0-.29-.36.68.68,0,0,0-.84,0,1.12,1.12,0,0,0-.29.35,1.94,1.94,0,0,0-.17.45,1.78,1.78,0,0,0-.06.44H114A2.09,2.09,0,0,0,114,91.55Z" transform="translate(-14.29 -42.32)"/><path class="cls-5" d="M120.15,94.32V91.59a1.57,1.57,0,0,0,0-.35,1,1,0,0,0-.13-.31.66.66,0,0,0-.23-.22.68.68,0,0,0-.35-.09.88.88,0,0,0-.38.08,1.06,1.06,0,0,0-.47.42.53.53,0,0,0-.08.21v3h-.56V91.59a1.69,1.69,0,0,0,0-.35.94.94,0,0,0-.12-.31.67.67,0,0,0-.23-.22.7.7,0,0,0-.36-.09.75.75,0,0,0-.36.09,1.15,1.15,0,0,0-.29.21,1.28,1.28,0,0,0-.19.25.82.82,0,0,0-.09.21v2.93h-.56V90.25h.54v.57l.1-.14a1.46,1.46,0,0,1,.2-.23,1.25,1.25,0,0,1,.31-.21.9.9,0,0,1,.41-.09,1.33,1.33,0,0,1,.5.08,1.24,1.24,0,0,1,.33.19.89.89,0,0,1,.19.22l.1.17.11-.15a1.36,1.36,0,0,1,.23-.22,1.56,1.56,0,0,1,.34-.2,1,1,0,0,1,.44-.09,1.33,1.33,0,0,1,.59.12,1.06,1.06,0,0,1,.38.31,1.2,1.2,0,0,1,.21.44,2.09,2.09,0,0,1,.06.5v2.79Z" transform="translate(-14.29 -42.32)"/><path class="cls-5" d="M125.17,92.18a2.92,2.92,0,0,1-.11.79,2.33,2.33,0,0,1-.34.72,1.86,1.86,0,0,1-.56.52,1.45,1.45,0,0,1-.77.2l-.31,0-.38-.05-.37-.06-.24,0V88.57h.56v2.24l.11-.16a1.55,1.55,0,0,1,.22-.22,1.53,1.53,0,0,1,.3-.2.79.79,0,0,1,.36-.09,1.26,1.26,0,0,1,.7.19,1.6,1.6,0,0,1,.48.48,2.08,2.08,0,0,1,.27.65A3.06,3.06,0,0,1,125.17,92.18Zm-.58,0a2.54,2.54,0,0,0-.06-.55,1.84,1.84,0,0,0-.19-.51,1.12,1.12,0,0,0-.32-.37.75.75,0,0,0-.46-.14.6.6,0,0,0-.32.1,1.75,1.75,0,0,0-.29.22,1.71,1.71,0,0,0-.22.26.5.5,0,0,0-.1.19v2.47l.13,0,.2,0,.22,0h.19a.81.81,0,0,0,.51-.17,1.46,1.46,0,0,0,.38-.43,2.16,2.16,0,0,0,.24-.57A2.48,2.48,0,0,0,124.59,92.18Z" transform="translate(-14.29 -42.32)"/><path class="cls-5" d="M126.57,92.38a2.44,2.44,0,0,0,.06.52,1.94,1.94,0,0,0,.19.51,1.24,1.24,0,0,0,.33.4.76.76,0,0,0,.49.16,1.61,1.61,0,0,0,.34,0l.31-.09.25-.1.17-.09.17.47-.17.07-.28.1-.37.09a2.57,2.57,0,0,1-.43,0,1.39,1.39,0,0,1-.79-.21,1.53,1.53,0,0,1-.49-.54,2.38,2.38,0,0,1-.26-.72,4.21,4.21,0,0,1-.07-.77,2.49,2.49,0,0,1,.1-.66,2.42,2.42,0,0,1,.29-.66,1.78,1.78,0,0,1,.47-.51,1.08,1.08,0,0,1,.65-.2,1.2,1.2,0,0,1,.7.19,1.5,1.5,0,0,1,.46.49,2.23,2.23,0,0,1,.25.66,3.25,3.25,0,0,1,.08.68v.2Zm1.83-.83a1.81,1.81,0,0,0-.16-.45,1.17,1.17,0,0,0-.29-.36.68.68,0,0,0-.84,0,1.12,1.12,0,0,0-.29.35,2,2,0,0,0-.17.45,1.83,1.83,0,0,0-.06.44h1.87A2.09,2.09,0,0,0,128.41,91.55Z" transform="translate(-14.29 -42.32)"/><path class="cls-5" d="M131.85,90.78l-.15-.07a.43.43,0,0,0-.17,0,.56.56,0,0,0-.31.09A1.36,1.36,0,0,0,131,91a1.27,1.27,0,0,0-.18.24.87.87,0,0,0-.09.17v2.92h-.56V90.25h.54v.57l.08-.14a1.32,1.32,0,0,1,.48-.43.77.77,0,0,1,.38-.09.75.75,0,0,1,.23,0,.56.56,0,0,1,.17.08Z" transform="translate(-14.29 -42.32)"/><path class="cls-5" d="M135.13,90.65l.09.12a1.23,1.23,0,0,1,.11.2,1.92,1.92,0,0,1,.09.27,1.2,1.2,0,0,1,0,.32,1.58,1.58,0,0,1-.11.58,1.5,1.5,0,0,1-.29.47,1.36,1.36,0,0,1-.45.32,1.34,1.34,0,0,1-.56.12.63.63,0,0,0-.19,0l-.19.08a.5.5,0,0,0-.15.12.21.21,0,0,0-.06.14.34.34,0,0,0,.17.29.74.74,0,0,0,.42.11,2.65,2.65,0,0,1,.64.08,1.84,1.84,0,0,1,.54.23,1.23,1.23,0,0,1,.37.37.89.89,0,0,1,.14.49.83.83,0,0,1-.12.42,1.4,1.4,0,0,1-.34.39,1.85,1.85,0,0,1-.54.29,2.1,2.1,0,0,1-.69.11,2.18,2.18,0,0,1-.63-.09,1.72,1.72,0,0,1-.51-.24,1.16,1.16,0,0,1-.33-.36.87.87,0,0,1-.12-.45.72.72,0,0,1,.13-.42,1.2,1.2,0,0,1,.29-.3,1.59,1.59,0,0,1,.35-.19,1.09,1.09,0,0,1,.29-.08l-.15,0a.79.79,0,0,1-.19-.1.6.6,0,0,1-.16-.17.45.45,0,0,1-.07-.25.33.33,0,0,1,.06-.19.86.86,0,0,1,.15-.17l.18-.12.16-.06a1.32,1.32,0,0,1-.26-.13,1.17,1.17,0,0,1-.28-.26,1.43,1.43,0,0,1-.22-.41,1.75,1.75,0,0,1-.09-.59,1.26,1.26,0,0,1,.11-.51,1.51,1.51,0,0,1,.75-.77,1.27,1.27,0,0,1,.55-.12,1.58,1.58,0,0,1,.35,0l.24.06h1.15v.4Zm.06,4.33a.61.61,0,0,0-.32-.52,1.47,1.47,0,0,0-.81-.21,1.36,1.36,0,0,0-.39.06,1.24,1.24,0,0,0-.34.15.81.81,0,0,0-.23.23A.5.5,0,0,0,133,95a.61.61,0,0,0,.08.3.83.83,0,0,0,.21.25,1.08,1.08,0,0,0,.33.17,1.36,1.36,0,0,0,.43.06,1.41,1.41,0,0,0,.45-.07,1.4,1.4,0,0,0,.36-.18.84.84,0,0,0,.24-.25A.55.55,0,0,0,135.19,95Zm-.29-3.43a1.09,1.09,0,0,0-.22-.72.75.75,0,0,0-.61-.27.76.76,0,0,0-.35.08.78.78,0,0,0-.26.22,1,1,0,0,0-.16.32,1.23,1.23,0,0,0-.06.37,1.92,1.92,0,0,0,0,.42,1,1,0,0,0,.14.34.7.7,0,0,0,.25.23.82.82,0,0,0,.39.08.69.69,0,0,0,.38-.1.86.86,0,0,0,.26-.25,1.1,1.1,0,0,0,.15-.34A1.67,1.67,0,0,0,134.89,91.55Z" transform="translate(-14.29 -42.32)"/><path class="cls-5" d="M73,82.6a3.34,3.34,0,0,1-.18,1.11,2.89,2.89,0,0,1-.49.9,2.31,2.31,0,0,1-.74.6,2,2,0,0,1-.93.22H69.39V80h1.17a2.61,2.61,0,0,1,1,.18,2.28,2.28,0,0,1,.78.51,2.33,2.33,0,0,1,.52.81A3,3,0,0,1,73,82.6Zm-.61,0a2.51,2.51,0,0,0-.15-.88,2.05,2.05,0,0,0-.39-.66,1.69,1.69,0,0,0-.56-.42,1.6,1.6,0,0,0-.67-.14H70v4.45h.69a1.35,1.35,0,0,0,.68-.18,1.79,1.79,0,0,0,.56-.5,2.48,2.48,0,0,0,.37-.74A3,3,0,0,0,72.41,82.6Z" transform="translate(-14.29 -42.32)"/><path class="cls-5" d="M76.3,85.42v-.57l-.11.15a1.38,1.38,0,0,1-.22.23,1.64,1.64,0,0,1-.32.2.9.9,0,0,1-.4.09,1.29,1.29,0,0,1-.57-.12,1.15,1.15,0,0,1-.39-.31,1.24,1.24,0,0,1-.23-.44,1.84,1.84,0,0,1-.07-.52V81.35h.56v2.73a1.44,1.44,0,0,0,0,.36,1,1,0,0,0,.13.31.72.72,0,0,0,1,.2,1.54,1.54,0,0,0,.3-.23,1.37,1.37,0,0,0,.21-.26.68.68,0,0,0,.08-.18V81.35h.56v4.07Z" transform="translate(-14.29 -42.32)"/><path class="cls-5" d="M80.28,85.42v-.57l-.12.16a1.44,1.44,0,0,1-.25.23,1.79,1.79,0,0,1-.35.2,1.07,1.07,0,0,1-.43.09,1.29,1.29,0,0,1-.88-.3,1.06,1.06,0,0,1-.34-.84.83.83,0,0,1,.15-.48,1.48,1.48,0,0,1,.38-.38,2.54,2.54,0,0,1,.5-.28,2.66,2.66,0,0,1,.51-.16l.79-.18v-.27A1,1,0,0,0,80,82a.78.78,0,0,0-.65-.27,1,1,0,0,0-.29,0l-.31.11-.26.12-.15.08-.17-.44.15-.08.29-.12.38-.11a1.83,1.83,0,0,1,.42,0,1.38,1.38,0,0,1,1,.34,1.31,1.31,0,0,1,.37,1v2.81Zm0-2.11-.68.15a2.36,2.36,0,0,0-.36.12,1.81,1.81,0,0,0-.35.19,1.15,1.15,0,0,0-.26.26.53.53,0,0,0-.11.32.7.7,0,0,0,.21.53.71.71,0,0,0,.51.19.89.89,0,0,0,.36-.08,1.36,1.36,0,0,0,.32-.2,1.39,1.39,0,0,0,.24-.25,1,1,0,0,0,.14-.25Z" transform="translate(-14.29 -42.32)"/><path class="cls-5" d="M83.29,85.48a1,1,0,0,1-.27,0,.85.85,0,0,1-.4-.08.69.69,0,0,1-.25-.21.84.84,0,0,1-.13-.31,1.84,1.84,0,0,1,0-.37V79.68h.56v4.81a1.06,1.06,0,0,0,.06.41.22.22,0,0,0,.22.15.38.38,0,0,0,.15,0,.33.33,0,0,0,.12-.08l.17.47A.7.7,0,0,1,83.29,85.48Z" transform="translate(-14.29 -42.32)"/><path class="cls-5" d="M84.75,83.48a2.41,2.41,0,0,0,.06.52,2,2,0,0,0,.19.51,1.25,1.25,0,0,0,.33.4.76.76,0,0,0,.49.16,1.49,1.49,0,0,0,.34,0l.31-.08.25-.1.17-.09.17.47-.17.07-.28.1-.37.08a2.39,2.39,0,0,1-.43,0,1.37,1.37,0,0,1-.79-.21,1.52,1.52,0,0,1-.49-.53,2.36,2.36,0,0,1-.25-.72,4.22,4.22,0,0,1-.07-.77,2.5,2.5,0,0,1,.1-.66,2.45,2.45,0,0,1,.29-.66,1.81,1.81,0,0,1,.47-.51,1.08,1.08,0,0,1,.65-.2,1.21,1.21,0,0,1,.7.19,1.51,1.51,0,0,1,.46.49,2.22,2.22,0,0,1,.25.66,3.26,3.26,0,0,1,.08.68v.2Zm1.84-.83a1.8,1.8,0,0,0-.16-.45,1.18,1.18,0,0,0-.29-.36.68.68,0,0,0-.84,0,1.12,1.12,0,0,0-.29.35,2,2,0,0,0-.17.45,1.79,1.79,0,0,0-.06.44h1.87A2.09,2.09,0,0,0,86.58,82.66Z" transform="translate(-14.29 -42.32)"/><path class="cls-5" d="M93.56,85.42V82.84H91.33v2.58h-.59V80h.59v2.34h2.23V80h.59v5.4Z" transform="translate(-14.29 -42.32)"/><path class="cls-5" d="M98.64,83.28a3.44,3.44,0,0,1-.09.73,2.62,2.62,0,0,1-.27.73,1.7,1.7,0,0,1-.49.56,1.25,1.25,0,0,1-.75.22,1.3,1.3,0,0,1-.77-.22,1.66,1.66,0,0,1-.49-.55,2.46,2.46,0,0,1-.26-.72,3.81,3.81,0,0,1-.08-.73,2.54,2.54,0,0,1,.09-.62A2.36,2.36,0,0,1,95.8,82a1.83,1.83,0,0,1,.5-.53,1.24,1.24,0,0,1,.73-.21,1.32,1.32,0,0,1,.76.21,1.65,1.65,0,0,1,.49.52,2.2,2.2,0,0,1,.27.66A2.82,2.82,0,0,1,98.64,83.28Zm-.58,0a2.58,2.58,0,0,0,0-.47,1.88,1.88,0,0,0-.17-.51,1.3,1.3,0,0,0-.32-.41.71.71,0,0,0-.49-.17.72.72,0,0,0-.48.16,1.26,1.26,0,0,0-.32.4,2,2,0,0,0-.17.51,2.6,2.6,0,0,0-.05.49,3.83,3.83,0,0,0,0,.55,2.35,2.35,0,0,0,.16.58,1.29,1.29,0,0,0,.31.46.71.71,0,0,0,.51.19.69.69,0,0,0,.5-.19,1.35,1.35,0,0,0,.32-.46,2.23,2.23,0,0,0,.16-.58A3.84,3.84,0,0,0,98.05,83.28Z" transform="translate(-14.29 -42.32)"/><path class="cls-5" d="M102.17,85.3l-.25.1-.34.08a1.94,1.94,0,0,1-.39,0,1.35,1.35,0,0,1-.74-.19,1.51,1.51,0,0,1-.49-.51,2.36,2.36,0,0,1-.27-.72,3.92,3.92,0,0,1-.09-.81,2.43,2.43,0,0,1,.43-1.35,1.8,1.8,0,0,1,.5-.48,1.21,1.21,0,0,1,.67-.19,1.87,1.87,0,0,1,.35,0l.3.08.23.09.12.07L102,82l-.11-.07-.21-.09-.25-.08-.25,0a.69.69,0,0,0-.43.15,1.23,1.23,0,0,0-.32.38,2,2,0,0,0-.2.51,2.2,2.2,0,0,0-.07.53,3.61,3.61,0,0,0,.06.64,2,2,0,0,0,.18.57,1.2,1.2,0,0,0,.32.41.74.74,0,0,0,.47.16,1.17,1.17,0,0,0,.27,0l.26-.08.23-.1.15-.09.17.48Z" transform="translate(-14.29 -42.32)"/><path class="cls-5" d="M105.67,85.42V82.69a1.15,1.15,0,0,0-.05-.34,1.13,1.13,0,0,0-.15-.32.77.77,0,0,0-.25-.23.66.66,0,0,0-.34-.09.77.77,0,0,0-.37.09,1.42,1.42,0,0,0-.31.22,1.28,1.28,0,0,0-.21.25.55.55,0,0,0-.09.2v2.93h-.56V79.68h.56v2.24a.68.68,0,0,1,.1-.16,1.36,1.36,0,0,1,.23-.22,1.59,1.59,0,0,1,.32-.2.91.91,0,0,1,.39-.09,1.29,1.29,0,0,1,.57.12,1.16,1.16,0,0,1,.4.31,1.37,1.37,0,0,1,.24.44,1.57,1.57,0,0,1,.08.5v2.79Z" transform="translate(-14.29 -42.32)"/><path class="cls-5" d="M109.91,84.31a1.13,1.13,0,0,1-.1.48,1.19,1.19,0,0,1-.29.38,1.33,1.33,0,0,1-.43.25,1.53,1.53,0,0,1-.52.09,2.92,2.92,0,0,1-.45,0l-.37-.08-.28-.1-.18-.08.17-.45.16.08.28.1.34.09a1.45,1.45,0,0,0,.32,0,.86.86,0,0,0,.54-.18.59.59,0,0,0,.23-.49.44.44,0,0,0-.14-.32,2.08,2.08,0,0,0-.36-.28l-.47-.27a4.1,4.1,0,0,1-.47-.29,1.67,1.67,0,0,1-.36-.34.7.7,0,0,1-.14-.44,1.15,1.15,0,0,1,.11-.49,1.18,1.18,0,0,1,.29-.39,1.34,1.34,0,0,1,.42-.25,1.42,1.42,0,0,1,.5-.09,1.74,1.74,0,0,1,.33,0l.3.07.24.08.14.08-.17.45-.12-.08-.21-.09-.26-.08a1.06,1.06,0,0,0-.25,0,.78.78,0,0,0-.53.19.64.64,0,0,0-.22.51.47.47,0,0,0,.15.33,1.88,1.88,0,0,0,.36.29q.22.14.47.27a4,4,0,0,1,.47.29,1.79,1.79,0,0,1,.36.34A.63.63,0,0,1,109.91,84.31Z" transform="translate(-14.29 -42.32)"/><path class="cls-5" d="M113.39,85.3l-.25.1-.34.08a1.93,1.93,0,0,1-.39,0,1.34,1.34,0,0,1-.74-.19,1.5,1.5,0,0,1-.49-.51,2.34,2.34,0,0,1-.27-.72,3.91,3.91,0,0,1-.08-.81,2.44,2.44,0,0,1,.43-1.35,1.82,1.82,0,0,1,.5-.48,1.2,1.2,0,0,1,.67-.19,1.88,1.88,0,0,1,.35,0l.3.08.23.09.12.07-.17.47-.11-.07-.21-.09-.26-.08-.25,0a.69.69,0,0,0-.43.15,1.21,1.21,0,0,0-.32.38,2.05,2.05,0,0,0-.2.51,2.24,2.24,0,0,0-.07.53,3.7,3.7,0,0,0,.06.64,2.07,2.07,0,0,0,.18.57,1.21,1.21,0,0,0,.32.41.74.74,0,0,0,.47.16,1.18,1.18,0,0,0,.27,0l.26-.08.23-.1.15-.09.17.48Z" transform="translate(-14.29 -42.32)"/><path class="cls-5" d="M116.9,85.42V82.69a1.16,1.16,0,0,0-.05-.34,1.14,1.14,0,0,0-.15-.32.77.77,0,0,0-.25-.23.66.66,0,0,0-.34-.09.76.76,0,0,0-.37.09,1.43,1.43,0,0,0-.31.22,1.35,1.35,0,0,0-.21.25.54.54,0,0,0-.09.2v2.93h-.56V79.68h.56v2.24a.62.62,0,0,1,.1-.16,1.38,1.38,0,0,1,.23-.22,1.58,1.58,0,0,1,.32-.2.92.92,0,0,1,.39-.09,1.29,1.29,0,0,1,.57.12,1.16,1.16,0,0,1,.4.31,1.38,1.38,0,0,1,.24.44,1.6,1.6,0,0,1,.08.5v2.79Z" transform="translate(-14.29 -42.32)"/><path class="cls-5" d="M121.12,85.42v-.57L121,85a1.38,1.38,0,0,1-.22.23,1.65,1.65,0,0,1-.32.2.9.9,0,0,1-.4.09,1.29,1.29,0,0,1-.57-.12,1.14,1.14,0,0,1-.39-.31,1.21,1.21,0,0,1-.23-.44,1.83,1.83,0,0,1-.07-.52V81.35h.56v2.73a1.43,1.43,0,0,0,0,.36,1,1,0,0,0,.13.31.68.68,0,0,0,.23.22.75.75,0,0,0,.72,0,1.57,1.57,0,0,0,.3-.23,1.36,1.36,0,0,0,.21-.26.68.68,0,0,0,.09-.18V81.35h.56v4.07Z" transform="translate(-14.29 -42.32)"/><path class="cls-5" d="M124.11,85.48a1,1,0,0,1-.27,0,.85.85,0,0,1-.4-.08.69.69,0,0,1-.25-.21.84.84,0,0,1-.13-.31,1.85,1.85,0,0,1,0-.37V79.68h.56v4.81a1.05,1.05,0,0,0,.07.41.22.22,0,0,0,.22.15.38.38,0,0,0,.14,0,.33.33,0,0,0,.12-.08l.17.47A.7.7,0,0,1,124.11,85.48Z" transform="translate(-14.29 -42.32)"/><path class="cls-5" d="M125.52,83.48a2.38,2.38,0,0,0,.06.52,2,2,0,0,0,.19.51,1.25,1.25,0,0,0,.33.4.76.76,0,0,0,.49.16,1.49,1.49,0,0,0,.34,0l.31-.08.25-.1.17-.09.17.47-.17.07-.28.1-.37.08a2.39,2.39,0,0,1-.43,0,1.37,1.37,0,0,1-.79-.21,1.52,1.52,0,0,1-.49-.53,2.35,2.35,0,0,1-.25-.72,4.23,4.23,0,0,1-.07-.77,2.52,2.52,0,0,1,.1-.66,2.46,2.46,0,0,1,.29-.66,1.81,1.81,0,0,1,.47-.51,1.08,1.08,0,0,1,.65-.2,1.21,1.21,0,0,1,.7.19,1.54,1.54,0,0,1,.46.49,2.24,2.24,0,0,1,.25.66,3.2,3.2,0,0,1,.08.68v.2Zm1.83-.83a1.83,1.83,0,0,0-.16-.45,1.18,1.18,0,0,0-.29-.36.68.68,0,0,0-.84,0,1.13,1.13,0,0,0-.29.35,2,2,0,0,0-.17.45,1.77,1.77,0,0,0-.06.44h1.87A2,2,0,0,0,127.36,82.66Z" transform="translate(-14.29 -42.32)"/><path class="cls-3" d="M85.12,63.69a13.86,13.86,0,0,1-.69,4.44,10.77,10.77,0,0,1-1.93,3.53,8.64,8.64,0,0,1-3,2.31,9.36,9.36,0,0,1-4,.83H70.13a.73.73,0,0,1-.56-.22.82.82,0,0,1-.21-.58V54.31a.8.8,0,0,1,.21-.57.72.72,0,0,1,.56-.23h5.31a10.32,10.32,0,0,1,4,.74,8.6,8.6,0,0,1,3.05,2.08,9.49,9.49,0,0,1,2,3.21A11.71,11.71,0,0,1,85.12,63.69Zm-3.87,0a10.29,10.29,0,0,0-.38-2.86,6.67,6.67,0,0,0-1.14-2.29A5.62,5.62,0,0,0,77.92,57a5.05,5.05,0,0,0-2.4-.56h-2.4V71.84h2.21a4.9,4.9,0,0,0,2.43-.61,5.76,5.76,0,0,0,1.87-1.69A8.13,8.13,0,0,0,80.83,67,12.16,12.16,0,0,0,81.24,63.69Z" transform="translate(-14.29 -42.32)"/><path class="cls-3" d="M103.39,74.58a.78.78,0,0,1-.57.22h-2.2a.72.72,0,0,1-.56-.22.82.82,0,0,1-.21-.57V65.25H92.48V74a.76.76,0,0,1-.79.8h-2.2a.73.73,0,0,1-.56-.22.82.82,0,0,1-.21-.58V54.31a.81.81,0,0,1,.21-.57.72.72,0,0,1,.56-.23h2.2a.77.77,0,0,1,.79.8v7.82h7.37V54.31a.81.81,0,0,1,.21-.57.71.71,0,0,1,.56-.23h2.2a.77.77,0,0,1,.8.8V74A.79.79,0,0,1,103.39,74.58Z" transform="translate(-14.29 -42.32)"/><path class="cls-5" d="M120.91,68.67a5.71,5.71,0,0,1-.58,2.58,5.57,5.57,0,0,1-1.58,1.94,7.4,7.4,0,0,1-2.34,1.2,9.6,9.6,0,0,1-2.84.41h-4.89a.54.54,0,0,1-.54-.54V54a.48.48,0,0,1,.16-.37.55.55,0,0,1,.38-.14H114a9.17,9.17,0,0,1,2.41.32,6.11,6.11,0,0,1,2,1,4.84,4.84,0,0,1,1.41,1.66,5,5,0,0,1,.53,2.38,3.71,3.71,0,0,1-.38,1.64,5.86,5.86,0,0,1-1,1.4,6.16,6.16,0,0,1-1.27,1.05,5.45,5.45,0,0,1-1.33.62,5.8,5.8,0,0,1,1.71.59,5.39,5.39,0,0,1,1.44,1.1,5.22,5.22,0,0,1,1,1.55A4.79,4.79,0,0,1,120.91,68.67ZM118,58.93a3.23,3.23,0,0,0-1.12-2.58,4.33,4.33,0,0,0-2.91-1h-3.48v7.37h3.39a4.18,4.18,0,0,0,1.54-.29,4.36,4.36,0,0,0,1.31-.8,4,4,0,0,0,.93-1.21A3.4,3.4,0,0,0,118,58.93Zm.52,9.65a3.63,3.63,0,0,0-1.26-2.92,4.9,4.9,0,0,0-3.28-1.07h-3.49v8.34h3.49a4.83,4.83,0,0,0,1.76-.32,4.48,4.48,0,0,0,1.46-.89,4,4,0,0,0,1-1.37A4.28,4.28,0,0,0,118.49,68.58Z" transform="translate(-14.29 -42.32)"/><path class="cls-5" d="M139.82,74.26a.89.89,0,0,1-.22.38.53.53,0,0,1-.38.16h-1.6a.59.59,0,0,1-.4-.16.84.84,0,0,1-.24-.38l-3.53-17.85L130,74.26a.83.83,0,0,1-.24.38.59.59,0,0,1-.4.16h-1.6a.59.59,0,0,1-.4-.16.83.83,0,0,1-.24-.38L123,54a.35.35,0,0,1,.08-.37.51.51,0,0,1,.37-.14h1.34a.6.6,0,0,1,.64.51l3.2,17.88L132.1,54a.6.6,0,0,1,.64-.51h1.6a.59.59,0,0,1,.61.51l3.5,17.88L141.62,54a.59.59,0,0,1,.61-.51h1.28a.46.46,0,0,1,.35.14.36.36,0,0,1,.06.37Z" transform="translate(-14.29 -42.32)"/><path class="cls-5" d="M73.61,105v-4.45L72.34,105h-.81l-1.26-4.45V105h-.87v-5.4h1.43L72,103.66l1.12-4.08h1.43V105Z" transform="translate(-14.29 -42.32)"/><path class="cls-5" d="M79.37,102.84a3.3,3.3,0,0,1-.09.7,2.36,2.36,0,0,1-.29.73,1.88,1.88,0,0,1-.55.58,1.48,1.48,0,0,1-.86.23,1.53,1.53,0,0,1-.87-.23,1.8,1.8,0,0,1-.54-.57,2.29,2.29,0,0,1-.28-.73,3.66,3.66,0,0,1-.08-.71,2.38,2.38,0,0,1,.1-.65,2.11,2.11,0,0,1,.32-.66,1.92,1.92,0,0,1,.56-.51,1.5,1.5,0,0,1,.8-.21,1.59,1.59,0,0,1,.83.21,1.77,1.77,0,0,1,.55.52,2.11,2.11,0,0,1,.3.66A2.54,2.54,0,0,1,79.37,102.84Zm-.93,0a2,2,0,0,0,0-.38,1.7,1.7,0,0,0-.14-.42,1,1,0,0,0-.26-.34.6.6,0,0,0-.4-.14.62.62,0,0,0-.41.13,1,1,0,0,0-.26.32,1.57,1.57,0,0,0-.14.42,2.31,2.31,0,0,0,0,.41,3.36,3.36,0,0,0,0,.46,2,2,0,0,0,.13.49,1.12,1.12,0,0,0,.26.38.58.58,0,0,0,.42.16.61.61,0,0,0,.43-.15,1.08,1.08,0,0,0,.26-.38,2,2,0,0,0,.13-.48A3.43,3.43,0,0,0,78.44,102.84Z" transform="translate(-14.29 -42.32)"/><path class="cls-5" d="M83.2,103.77a1.2,1.2,0,0,1-.11.51,1.26,1.26,0,0,1-.31.42,1.5,1.5,0,0,1-.47.28,1.69,1.69,0,0,1-.61.11,3,3,0,0,1-.49,0L80.8,105l-.33-.11-.22-.11.3-.71.17.09.29.12.35.1a1.48,1.48,0,0,0,.34,0,.68.68,0,0,0,.42-.13.41.41,0,0,0,.17-.35.33.33,0,0,0-.14-.25,2.89,2.89,0,0,0-.35-.24l-.46-.26a3.4,3.4,0,0,1-.46-.29,1.86,1.86,0,0,1-.35-.34.64.64,0,0,1-.14-.4,1.23,1.23,0,0,1,.11-.53,1.25,1.25,0,0,1,.31-.42,1.49,1.49,0,0,1,.47-.28,1.64,1.64,0,0,1,.58-.1,2.16,2.16,0,0,1,.38,0l.34.08.27.1.17.09-.3.68-.13-.08-.21-.11-.26-.09a1,1,0,0,0-.27,0,.58.58,0,0,0-.43.15.52.52,0,0,0-.15.38.33.33,0,0,0,.15.24,2.69,2.69,0,0,0,.36.25l.47.26a4.28,4.28,0,0,1,.47.29,2,2,0,0,1,.36.33A.59.59,0,0,1,83.2,103.77Z" transform="translate(-14.29 -42.32)"/><path class="cls-5" d="M87.78,102.84a2.86,2.86,0,0,1-.13.86,2.12,2.12,0,0,1-.38.71,1.79,1.79,0,0,1-.61.48,1.84,1.84,0,0,1-.82.18l-.34,0L85.1,105l-.41-.07-.34-.08V99.24h.91v2.23a.74.74,0,0,1,.1-.16,1.41,1.41,0,0,1,.49-.41.74.74,0,0,1,.33-.08,1.38,1.38,0,0,1,.75.19,1.59,1.59,0,0,1,.5.49,2.13,2.13,0,0,1,.28.66A2.93,2.93,0,0,1,87.78,102.84Zm-.93,0a2.05,2.05,0,0,0-.05-.45,1.48,1.48,0,0,0-.16-.41,1,1,0,0,0-.26-.3.6.6,0,0,0-.37-.12.49.49,0,0,0-.26.08,1.16,1.16,0,0,0-.23.19,1.7,1.7,0,0,0-.18.23.48.48,0,0,0-.08.19v2l.11,0,.16,0,.17,0h.15a.7.7,0,0,0,.43-.14,1.25,1.25,0,0,0,.32-.36,1.75,1.75,0,0,0,.19-.48A2.13,2.13,0,0,0,86.85,102.84Z" transform="translate(-14.29 -42.32)"/><path class="cls-5" d="M91.05,105v-.55a.71.71,0,0,1-.12.17,1.63,1.63,0,0,1-.57.4,1,1,0,0,1-.4.08,1.34,1.34,0,0,1-.95-.32,1.07,1.07,0,0,1-.34-.83.91.91,0,0,1,.15-.51,1.68,1.68,0,0,1,.39-.41,2.42,2.42,0,0,1,.53-.3,2.93,2.93,0,0,1,.56-.18l.71-.15v-.15a.78.78,0,0,0-.19-.51.69.69,0,0,0-.56-.22,1,1,0,0,0-.3,0l-.31.12-.26.13-.15.09-.3-.66.18-.09.34-.13.45-.13a2.33,2.33,0,0,1,.52-.06,1.51,1.51,0,0,1,1.06.36,1.28,1.28,0,0,1,.39,1V105Zm0-2-.54.12a1.81,1.81,0,0,0-.33.11,1.42,1.42,0,0,0-.29.17.9.9,0,0,0-.2.21.43.43,0,0,0-.08.24.47.47,0,0,0,.17.39.6.6,0,0,0,.39.14.72.72,0,0,0,.3-.07,1.06,1.06,0,0,0,.27-.17,1.19,1.19,0,0,0,.2-.23.67.67,0,0,0,.11-.23Z" transform="translate(-14.29 -42.32)"/><path class="cls-5" d="M95.89,104.84l-.29.11a2.59,2.59,0,0,1-.38.09,2.45,2.45,0,0,1-.44,0,1.53,1.53,0,0,1-.83-.21,1.59,1.59,0,0,1-.53-.54,2.31,2.31,0,0,1-.28-.72,3.73,3.73,0,0,1-.08-.77,2.27,2.27,0,0,1,.11-.69,2.2,2.2,0,0,1,.34-.66,1.79,1.79,0,0,1,.56-.49,1.5,1.5,0,0,1,.76-.19,2.22,2.22,0,0,1,.4,0l.34.09.26.11.13.08-.3.76-.11-.09-.21-.11-.26-.09a.86.86,0,0,0-.25,0,.59.59,0,0,0-.35.11.93.93,0,0,0-.26.3,1.61,1.61,0,0,0-.16.41,2,2,0,0,0-.06.46,2.94,2.94,0,0,0,0,.53,1.8,1.8,0,0,0,.16.48,1.09,1.09,0,0,0,.27.35.6.6,0,0,0,.4.13,1,1,0,0,0,.28,0l.26-.1.21-.12.14-.1.3.77Z" transform="translate(-14.29 -42.32)"/><path class="cls-5" d="M99.44,105v-2.66a1,1,0,0,0,0-.27.74.74,0,0,0-.11-.25.62.62,0,0,0-.19-.18.54.54,0,0,0-.27-.07.63.63,0,0,0-.3.08,1.09,1.09,0,0,0-.25.19,1.11,1.11,0,0,0-.18.23.52.52,0,0,0-.08.2V105H97.1V99.24H98v2.23l.11-.16a1.33,1.33,0,0,1,.21-.22,1.38,1.38,0,0,1,.3-.19.84.84,0,0,1,.37-.08,1.36,1.36,0,0,1,.63.13,1.24,1.24,0,0,1,.42.34,1.32,1.32,0,0,1,.23.46,1.78,1.78,0,0,1,.07.49V105Z" transform="translate(-14.29 -42.32)"/></g></g></svg>